# xmcd CD database file
# Generated: Fri Nov 2 09:44:43 2001 by KSCD
# 
# Track frame offsets:
#       150
#       15266
#       31796
#       52450
#       64782
#       77322
#       96729
#       111601
#       127374
#       136905
#       152731
#       175729
#
# Disc length: 2722 seconds
#
# Revision: 2
# Processed by: cddbd v1.4PL0 Copyright (c) Steve Scherf et al.
# Submitted via: Kscd 1.3.0
#
DISCID=a50aa00c
DTITLE=Big Dave McLean and Tim Williams/Fellow Travelers
DYEAR=1900
DGENRE=
TTITLE0=If I'm Not The One To Love you
TTITLE1=Me And The Devil
TTITLE2=K. C. Moan
TTITLE3=Big Road Blues
TTITLE4=Why Do All These Things Happen To Me?
TTITLE5=Mud, Rubble And Crying
TTITLE6=Hey, Baby
TTITLE7=A Perfect Moon
TTITLE8=Seemed Like A Dream
TTITLE9=Mean Black Spider
TTITLE10=How Long, How Long Bues
TTITLE11=Mama, Tain't Long 'Fore Day
EXTD=
EXTT0=
EXTT1=
EXTT2=
EXTT3=
EXTT4=
EXTT5=
EXTT6=
EXTT7=
EXTT8=
EXTT9=
EXTT10=
EXTT11=
PLAYORDER=
